<svg id="Layer_1" data-name="Layer 1" xmlns="http://www.w3.org/2000/svg" viewBox="0 0 500 500"><defs><style>.cls-1{fill:#e2e2e2;}.cls-2{fill:#bcbcbc;}.cls-3{fill:none;stroke:#000;stroke-linecap:round;stroke-linejoin:round;stroke-width:15px;}</style></defs><title>garlic</title><path class="cls-1" d="M485.14,243.51c-17.38-47.59-75.68-91.15-115.47-116.38-24.21-15.35-39-42.61-39-72h0a12.75,12.75,0,0,0-12.5-13H182a12.75,12.75,0,0,0-12.5,13h0c0,29.44-14.81,56.7-39,72.05C90.65,152.36,32.35,195.92,15,243.51-12.22,317.94,50.7,348.63,50.7,348.63h0C57.33,412.44,132,423.07,182,422.92c17.91,15,41.81,24.17,68.07,24.17s50.17-9.16,68.07-24.17c50,.15,124.66-10.48,131.28-74.29h0S512.33,317.94,485.14,243.51Z"/><path class="cls-2" d="M302.6,209.45c16.76,38.83,27,82.28,27,106.4,0,50.53-45,91.48-100.52,91.48-31.2,0-59.08-12.93-77.51-33.23,9.39,41.66,49.91,73,98.46,73,55.52,0,100.53-40.95,100.53-91.47C350.58,322.63,331.38,253.47,302.6,209.45Z"/><path class="cls-3" d="M300.92,206.89c29.71,43.87,49.66,115.09,49.66,148.73,0,50.52-45,91.47-100.53,91.47s-100.52-40.95-100.52-91.47c0-33.54,19.83-104.45,49.4-148.35"/><path class="cls-3" d="M169,141.52S51.34,218.11,50.23,338.33c-.68,73,79.16,84.75,131.76,84.59"/><path class="cls-3" d="M50.7,348.63S-12.22,317.94,15,243.51c17.38-47.59,75.68-91.15,115.47-116.38,24.21-15.35,39-42.61,39-72h0a12.75,12.75,0,0,1,12.5-13h68.09"/><path class="cls-2" d="M371,418.3c57.05-14.37,79.25-39.05,78.87-80-1.11-120.22-118.74-196.81-118.74-196.81C464.65,331.37,398.48,383.87,371,418.3Z"/><path class="cls-3" d="M318.12,422.92c52.59.16,132.44-11.6,131.76-84.59-1.11-120.22-118.74-196.81-118.74-196.81"/><path class="cls-2" d="M412.16,157c37.72,49.94,71.62,125.27,42.32,188.72,14.39-9.28,53-40.9,30.66-102.16C473.39,211.34,443,181,412.16,157Z"/><path class="cls-3" d="M449.41,348.63s62.92-30.69,35.73-105.12c-17.38-47.59-75.68-91.15-115.47-116.38-24.21-15.35-39-42.61-39-72h0a12.75,12.75,0,0,0-12.5-13h-68.1"/><line class="cls-3" x1="250.05" y1="447.09" x2="250.05" y2="479.31"/><line class="cls-3" x1="229.1" y1="445.1" x2="210.58" y2="470.19"/><line class="cls-3" x1="206.12" y1="437.91" x2="185.42" y2="450.56"/><line class="cls-3" x1="271.01" y1="445.1" x2="289.53" y2="470.19"/><line class="cls-3" x1="293.99" y1="437.91" x2="314.69" y2="450.56"/></svg>