<svg id="Layer_1" data-name="Layer 1" xmlns="http://www.w3.org/2000/svg" viewBox="0 0 500 500"><defs><style>.cls-1{fill:#679b16;}.cls-2{fill:none;stroke:#000;stroke-linecap:round;stroke-linejoin:round;stroke-width:15px;}.cls-3{fill:#8bba49;}.cls-4{fill:#74bc17;}</style></defs><title>celery</title><path class="cls-1" d="M293,151.55H207s-47.15,216.5-43.94,266.14c1.8,27.82,10.4,73.55,86.93,73.56h0c76.53,0,85.13-45.74,86.93-73.56C340.14,368.05,293,151.55,293,151.55Z"/><path class="cls-2" d="M293,151.55H207s-47.15,216.5-43.94,266.14c1.8,27.82,10.4,73.55,86.93,73.56h0c76.53,0,85.13-45.74,86.93-73.56C340.14,368.05,293,151.55,293,151.55Z"/><path class="cls-3" d="M269.58,151.55H230.42L200.58,436.38A49.69,49.69,0,0,0,250,491.25h0a49.69,49.69,0,0,0,49.42-54.87Z"/><path class="cls-2" d="M269.58,151.55H230.42L200.58,436.38A49.69,49.69,0,0,0,250,491.25h0a49.69,49.69,0,0,0,49.42-54.87Z"/><path class="cls-4" d="M162.91,132.21,152.79,60.37c-7.47-19.86-28.34-29.95-28.34-29.95-6.44,8.26-7.21,16-7.21,16l1.47,8.6a4,4,0,0,1-7.36,2.72c-3.83-6.4-8.28-12.8-12.84-17.19-12.77-12.28-36.57-9.33-36.57-9.33S59,55,71.27,67.81c4.39,4.56,10.78,9,17.19,12.83A4,4,0,0,1,85.74,88l-8.6-1.48s-7.76.77-16,7.21c0,0,10.09,20.88,29.95,28.34Z"/><path class="cls-4" d="M162.91,132.21l-8.29,66.11c-6.6,18.21-25.7,27.21-25.7,27.21-6.06-7.71-6.89-14.87-6.89-14.87l1-6.62a4,4,0,0,0-7.37-2.66c-3.27,5.42-7,10.72-10.85,14.41-11.6,11.15-33.6,8.08-33.6,8.08s-3.06-22,8.08-33.6c3.7-3.85,9-7.57,14.42-10.84a4,4,0,0,0-2.67-7.37l-6.61,1s-7.17-.83-14.88-6.88c0,0,9-19.11,27.21-25.7Z"/><path class="cls-4" d="M162.91,132.21l66.11-8.3c18.21-6.59,27.21-25.7,27.21-25.7-7.7-6.06-14.87-6.88-14.87-6.88l-6.61,1A4,4,0,0,1,232.08,85c5.43-3.27,10.72-7,14.42-10.84,11.14-11.6,8.08-33.6,8.08-33.6s-22-3.07-33.6,8.07c-3.85,3.7-7.58,9-10.85,14.42a4,4,0,0,1-7.37-2.66l1-6.62s-.83-7.16-6.89-14.87c0,0-19.1,9-25.7,27.21Z"/><path class="cls-2" d="M162.91,132.21,152.79,60.37c-7.47-19.86-28.34-29.95-28.34-29.95-6.44,8.26-7.21,16-7.21,16l1.47,8.6a4,4,0,0,1-7.36,2.72c-3.83-6.4-8.28-12.8-12.84-17.19-12.77-12.28-36.57-9.33-36.57-9.33S59,55,71.27,67.81c4.39,4.56,10.78,9,17.19,12.83A4,4,0,0,1,85.74,88l-8.6-1.48s-7.76.77-16,7.21c0,0,10.09,20.88,29.95,28.34Z"/><path class="cls-2" d="M162.91,132.21l-8.29,66.11c-6.6,18.21-25.7,27.21-25.7,27.21-6.06-7.71-6.89-14.87-6.89-14.87l1-6.62a4,4,0,0,0-7.37-2.66c-3.27,5.42-7,10.72-10.85,14.41-11.6,11.15-33.6,8.08-33.6,8.08s-3.06-22,8.08-33.6c3.7-3.85,9-7.57,14.42-10.84a4,4,0,0,0-2.67-7.37l-6.61,1s-7.17-.83-14.88-6.88c0,0,9-19.11,27.21-25.7Z"/><path class="cls-2" d="M162.91,132.21l66.11-8.3c18.21-6.59,27.21-25.7,27.21-25.7-7.7-6.06-14.87-6.88-14.87-6.88l-6.61,1A4,4,0,0,1,232.08,85c5.43-3.27,10.72-7,14.42-10.84,11.14-11.6,8.08-33.6,8.08-33.6s-22-3.07-33.6,8.07c-3.85,3.7-7.58,9-10.85,14.42a4,4,0,0,1-7.37-2.66l1-6.62s-.83-7.16-6.89-14.87c0,0-19.1,9-25.7,27.21Z"/><path class="cls-4" d="M337.09,132.21l10.12-71.84c7.47-19.86,28.34-29.95,28.34-29.95,6.44,8.26,7.21,16,7.21,16L381.29,55a4,4,0,0,0,7.36,2.72c3.83-6.4,8.28-12.8,12.84-17.19,12.77-12.28,36.57-9.33,36.57-9.33S441,55,428.73,67.81c-4.39,4.56-10.78,9-17.19,12.83A4,4,0,0,0,414.26,88l8.6-1.48s7.76.77,16,7.21c0,0-10.09,20.88-29.95,28.34Z"/><path class="cls-4" d="M337.09,132.21l8.29,66.11c6.6,18.21,25.7,27.21,25.7,27.21,6.06-7.71,6.89-14.87,6.89-14.87l-1-6.62a4,4,0,0,1,7.37-2.66c3.27,5.42,7,10.72,10.85,14.41,11.6,11.15,33.6,8.08,33.6,8.08s3.06-22-8.08-33.6c-3.7-3.85-9-7.57-14.42-10.84a4,4,0,0,1,2.67-7.37l6.61,1s7.17-.83,14.88-6.88c0,0-9-19.11-27.21-25.7Z"/><path class="cls-4" d="M337.09,132.21,271,123.91c-18.21-6.59-27.21-25.7-27.21-25.7,7.7-6.06,14.87-6.88,14.87-6.88l6.61,1A4,4,0,0,0,267.92,85c-5.43-3.27-10.72-7-14.42-10.84-11.14-11.6-8.08-33.6-8.08-33.6s22-3.07,33.6,8.07c3.85,3.7,7.58,9,10.85,14.42a4,4,0,0,0,7.37-2.66l-1-6.62s.83-7.16,6.89-14.87c0,0,19.1,9,25.7,27.21Z"/><path class="cls-2" d="M337.09,132.21l10.12-71.84c7.47-19.86,28.34-29.95,28.34-29.95,6.44,8.26,7.21,16,7.21,16L381.29,55a4,4,0,0,0,7.36,2.72c3.83-6.4,8.28-12.8,12.84-17.19,12.77-12.28,36.57-9.33,36.57-9.33S441,55,428.73,67.81c-4.39,4.56-10.78,9-17.19,12.83A4,4,0,0,0,414.26,88l8.6-1.48s7.76.77,16,7.21c0,0-10.09,20.88-29.95,28.34Z"/><path class="cls-2" d="M337.09,132.21l8.29,66.11c6.6,18.21,25.7,27.21,25.7,27.21,6.06-7.71,6.89-14.87,6.89-14.87l-1-6.62a4,4,0,0,1,7.37-2.66c3.27,5.42,7,10.72,10.85,14.41,11.6,11.15,33.6,8.08,33.6,8.08s3.06-22-8.08-33.6c-3.7-3.85-9-7.57-14.42-10.84a4,4,0,0,1,2.67-7.37l6.61,1s7.17-.83,14.88-6.88c0,0-9-19.11-27.21-25.7Z"/><path class="cls-2" d="M337.09,132.21,271,123.91c-18.21-6.59-27.21-25.7-27.21-25.7,7.7-6.06,14.87-6.88,14.87-6.88l6.61,1A4,4,0,0,0,267.92,85c-5.43-3.27-10.72-7-14.42-10.84-11.14-11.6-8.08-33.6-8.08-33.6s22-3.07,33.6,8.07c3.85,3.7,7.58,9,10.85,14.42a4,4,0,0,0,7.37-2.66l-1-6.62s.83-7.16,6.89-14.87c0,0,19.1,9,25.7,27.21Z"/><path class="cls-4" d="M250,151.55l43.64-58c8.76-19.32,1.13-41.21,1.13-41.21-10.38,1.28-16.42,6.22-16.42,6.22l-5,7.13a4,4,0,0,1-7.13-3.29c1.83-7.24,3.21-14.9,3.08-21.23C268.92,23.5,250,8.75,250,8.75S231.08,23.5,230.74,41.21c-.13,6.33,1.25,14,3.08,21.23a4,4,0,0,1-7.13,3.29l-5-7.13s-6-4.94-16.42-6.22c0,0-7.63,21.89,1.13,41.21Z"/><path class="cls-4" d="M250,151.55l-52.61,40.88C179.85,200.65,160,193.5,160,193.5c1.17-9.73,5.65-15.38,5.65-15.38l5.41-4a4,4,0,0,0-3.33-7.1c-6.15,1.53-12.53,2.64-17.86,2.53-16.08-.32-29.47-18-29.47-18s13.39-17.72,29.47-18c5.33-.11,11.71,1,17.86,2.52a4,4,0,0,0,3.33-7.09l-5.41-4s-4.48-5.65-5.65-15.38c0,0,19.88-7.15,37.42,1.06Z"/><path class="cls-4" d="M250,151.55l52.61,40.88c17.54,8.22,37.42,1.07,37.42,1.07-1.17-9.73-5.65-15.38-5.65-15.38l-5.41-4a4,4,0,0,1,3.33-7.1c6.15,1.53,12.53,2.64,17.86,2.53,16.08-.32,29.47-18,29.47-18s-13.39-17.72-29.47-18c-5.33-.11-11.71,1-17.86,2.52a4,4,0,0,1-3.33-7.09l5.41-4s4.48-5.65,5.65-15.38c0,0-19.88-7.15-37.42,1.06Z"/><path class="cls-2" d="M250,151.55l43.64-58c8.76-19.32,1.13-41.21,1.13-41.21-10.38,1.28-16.42,6.22-16.42,6.22l-5,7.13a4,4,0,0,1-7.13-3.29c1.83-7.24,3.21-14.9,3.08-21.23C268.92,23.5,250,8.75,250,8.75S231.08,23.5,230.74,41.21c-.13,6.33,1.25,14,3.08,21.23a4,4,0,0,1-7.13,3.29l-5-7.13s-6-4.94-16.42-6.22c0,0-7.63,21.89,1.13,41.21Z"/><path class="cls-2" d="M250,151.55l-52.61,40.88C179.85,200.65,160,193.5,160,193.5c1.17-9.73,5.65-15.38,5.65-15.38l5.41-4a4,4,0,0,0-3.33-7.1c-6.15,1.53-12.53,2.64-17.86,2.53-16.08-.32-29.47-18-29.47-18s13.39-17.72,29.47-18c5.33-.11,11.71,1,17.86,2.52a4,4,0,0,0,3.33-7.09l-5.41-4s-4.48-5.65-5.65-15.38c0,0,19.88-7.15,37.42,1.06Z"/><path class="cls-2" d="M250,151.55l52.61,40.88c17.54,8.22,37.42,1.07,37.42,1.07-1.17-9.73-5.65-15.38-5.65-15.38l-5.41-4a4,4,0,0,1,3.33-7.1c6.15,1.53,12.53,2.64,17.86,2.53,16.08-.32,29.47-18,29.47-18s-13.39-17.72-29.47-18c-5.33-.11-11.71,1-17.86,2.52a4,4,0,0,1-3.33-7.09l5.41-4s4.48-5.65,5.65-15.38c0,0-19.88-7.15-37.42,1.06Z"/></svg>