<svg id="Layer_1" data-name="Layer 1" xmlns="http://www.w3.org/2000/svg" viewBox="0 0 500 500"><defs><style>.cls-1{fill:#366610;}.cls-2{fill:#c8e283;}.cls-3{fill:#a9bf66;}.cls-4{fill:none;stroke:#000;stroke-linecap:round;stroke-linejoin:round;stroke-width:15px;}.cls-5{fill:#74bc17;}.cls-6{fill:#679b16;}</style></defs><title>pea</title><path class="cls-1" d="M138.88,241.54s18.41-100.39,143.56-106.9c0,0,3.68-79.73,116-102.4,0,0-150.49-20.68-268.41,82C-8.12,234.56,8.21,328.61,8.21,328.61S56.06,246.87,138.88,241.54Z"/><circle class="cls-2" cx="114.63" cy="243.12" r="56.41"/><circle class="cls-2" cx="195.47" cy="163.93" r="56.41"/><circle class="cls-2" cx="296.48" cy="113.48" r="56.41"/><path class="cls-3" d="M114.63,186.72A56.26,56.26,0,0,0,72.8,205.28a56.41,56.41,0,0,1,58.38,91.77,56.41,56.41,0,0,0-16.55-110.33Z"/><path class="cls-3" d="M195.47,107.53a56.24,56.24,0,0,0-41.83,18.57A56.41,56.41,0,0,1,212,217.87a56.41,56.41,0,0,0-16.55-110.34Z"/><path class="cls-3" d="M296.48,57.07a56.26,56.26,0,0,0-41.83,18.57A56.41,56.41,0,0,1,313,167.41,56.41,56.41,0,0,0,296.48,57.07Z"/><circle class="cls-4" cx="114.63" cy="243.12" r="56.41"/><circle class="cls-4" cx="195.47" cy="163.93" r="56.41"/><circle class="cls-4" cx="296.48" cy="113.48" r="56.41"/><path class="cls-4" d="M138.88,241.54s18.41-100.39,143.56-106.9c0,0,3.68-79.73,116-102.4,0,0-150.49-20.68-268.41,82C-8.12,234.56,8.21,328.61,8.21,328.61S56.06,246.87,138.88,241.54Z"/><path class="cls-5" d="M398.4,32.24S417.08,173.39,268,272.11,8.21,328.61,8.21,328.61s47.85-81.74,130.67-87.07c0,0,18.41-100.39,143.56-106.9C282.44,134.64,286.12,54.91,398.4,32.24Z"/><path class="cls-6" d="M398.4,32.24a209.07,209.07,0,0,0-41,12.49c-.47,41-14.17,144.59-131.13,222-86.07,57-159.36,67-205.93,65.29C52.84,339.71,148,351.58,268,272.11,417.08,173.39,398.4,32.24,398.4,32.24Z"/><path class="cls-4" d="M398.4,32.24S417.08,173.39,268,272.11,8.21,328.61,8.21,328.61s47.85-81.74,130.67-87.07c0,0,18.41-100.39,143.56-106.9C282.44,134.64,286.12,54.91,398.4,32.24Z"/><circle class="cls-2" cx="99.96" cy="355.45" r="56.41"/><path class="cls-3" d="M155.89,348.15a56.24,56.24,0,0,0-23.82-39.07,56.41,56.41,0,0,1-83.45,69.76,56.41,56.41,0,0,0,107.27-30.69Z"/><circle class="cls-4" cx="99.96" cy="355.45" r="56.41"/><path class="cls-1" d="M230.64,376.11S249,275.72,374.19,269.21c0,0,3.69-79.73,116-102.4,0,0-150.49-20.68-268.41,82C83.63,369.13,100,463.18,100,463.18S147.81,381.44,230.64,376.11Z"/><circle class="cls-2" cx="206.38" cy="377.69" r="56.41"/><circle class="cls-2" cx="287.22" cy="298.51" r="56.41"/><circle class="cls-2" cx="388.23" cy="248.05" r="56.41"/><path class="cls-3" d="M206.38,321.29a56.24,56.24,0,0,0-41.83,18.57,56.41,56.41,0,0,1,58.38,91.77,56.41,56.41,0,0,0-16.55-110.34Z"/><path class="cls-3" d="M287.22,242.1a56.27,56.27,0,0,0-41.83,18.57,56.41,56.41,0,0,1,58.38,91.77A56.41,56.41,0,0,0,287.22,242.1Z"/><path class="cls-3" d="M388.23,191.64a56.27,56.27,0,0,0-41.83,18.57A56.41,56.41,0,0,1,404.78,302a56.41,56.41,0,0,0-16.55-110.34Z"/><circle class="cls-4" cx="206.38" cy="377.69" r="56.41"/><circle class="cls-4" cx="287.22" cy="298.51" r="56.41"/><circle class="cls-4" cx="388.23" cy="248.05" r="56.41"/><path class="cls-4" d="M230.64,376.11S249,275.72,374.19,269.21c0,0,3.69-79.73,116-102.4,0,0-150.49-20.68-268.41,82C83.63,369.13,100,463.18,100,463.18S147.81,381.44,230.64,376.11Z"/><path class="cls-5" d="M490.15,166.81S508.83,308,359.75,406.68,100,463.18,100,463.18s47.85-81.74,130.68-87.07c0,0,18.4-100.39,143.55-106.9C374.19,269.21,377.88,189.48,490.15,166.81Z"/><path class="cls-6" d="M490.15,166.81a209.07,209.07,0,0,0-41,12.49c-.47,41-14.17,144.59-131.12,222-86.08,57-159.37,67-205.94,65.3,32.54,7.64,127.69,19.51,247.7-60C508.83,308,490.15,166.81,490.15,166.81Z"/><path class="cls-4" d="M490.15,166.81S508.83,308,359.75,406.68,100,463.18,100,463.18s47.85-81.74,130.68-87.07c0,0,18.4-100.39,143.55-106.9C374.19,269.21,377.88,189.48,490.15,166.81Z"/><circle class="cls-2" cx="352.88" cy="408.85" r="56.41"/><path class="cls-3" d="M408.82,401.56A56.28,56.28,0,0,0,385,362.48a56.41,56.41,0,0,1-83.45,69.76,56.42,56.42,0,0,0,107.28-30.68Z"/><circle class="cls-4" cx="352.88" cy="408.85" r="56.41"/></svg>