<svg id="Layer_1" data-name="Layer 1" xmlns="http://www.w3.org/2000/svg" viewBox="0 0 500 500"><defs><style>.cls-1{fill:#8729b2;}.cls-2{fill:#712599;}.cls-3{fill:#679b16;}.cls-4{fill:none;stroke:#000;stroke-linecap:round;stroke-linejoin:round;stroke-width:15px;}.cls-5{fill:#74bc17;}</style></defs><title>eggplant</title><path class="cls-1" d="M330.53,112.86C284.94,175.05,296.4,219.75,102.7,254.7,32.09,267.44-8.19,343.39,15,411.3h0c25.42,74.46,109.12,96,180.06,62,105.23-50.49,185.58-131.78,262.67-281.08a75.34,75.34,0,0,0-18.92-92.87h0A75.12,75.12,0,0,0,330.53,112.86Z"/><path class="cls-2" d="M447.64,107.94a75.73,75.73,0,0,1-8.44,36.49C362.11,293.72,281.76,375,176.53,425.51,115.26,454.9,44.49,442.81,10,391a122.24,122.24,0,0,0,5,20.29h0c25.42,74.46,109.12,96,180.06,62,105.23-50.49,185.58-131.78,262.67-281.08A75.45,75.45,0,0,0,447.64,107.94Z"/><path class="cls-3" d="M490.62,23.54a15.61,15.61,0,0,0-29-1.46,241.21,241.21,0,0,1-27.89,47,58.32,58.32,0,0,1,5.83,3.67,120,120,0,0,1,18.9,15.44A273.38,273.38,0,0,0,490,35,15.58,15.58,0,0,0,490.62,23.54Z"/><path class="cls-4" d="M330.53,112.86C284.94,175.05,296.4,219.75,102.7,254.7,32.09,267.44-8.19,343.39,15,411.3h0c25.42,74.46,109.12,96,180.06,62,105.23-50.49,185.58-131.78,262.67-281.08a75.34,75.34,0,0,0-18.92-92.87h0A75.12,75.12,0,0,0,330.53,112.86Z"/><path class="cls-5" d="M439.58,72.73s-73-54.81-135.8,46.2l43.09-1.72,4.71,40.38,39.1-6.29,8.56,40.78,38.37-7,17.5,44.88S529.18,132.5,439.58,72.73Z"/><path class="cls-3" d="M439.58,72.73a80.68,80.68,0,0,0-20.27-10.14c43.69,41.74,25.88,95.22,11.08,123.78l7.22-1.32,17.5,44.88S529.18,132.5,439.58,72.73Z"/><path class="cls-4" d="M439.58,72.73s-73-54.81-135.8,46.2l43.09-1.72,4.71,40.38,39.1-6.29,8.56,40.78,38.37-7,17.5,44.88S529.18,132.5,439.58,72.73Z"/><path class="cls-4" d="M490.62,23.54a15.61,15.61,0,0,0-29-1.46,241.21,241.21,0,0,1-27.89,47,58.32,58.32,0,0,1,5.83,3.67,120,120,0,0,1,18.9,15.44A273.38,273.38,0,0,0,490,35,15.58,15.58,0,0,0,490.62,23.54Z"/></svg>