<svg id="Layer_1" data-name="Layer 1" xmlns="http://www.w3.org/2000/svg" viewBox="0 0 500 500"><defs><style>.cls-1{fill:#74bc17;}.cls-2{fill:#366610;}.cls-3{fill:#2e540e;}.cls-4,.cls-5{fill:none;stroke-linecap:round;stroke-linejoin:round;stroke-width:15px;}.cls-4{stroke:#000;}.cls-5{stroke:#5d8715;}.cls-6{fill:#f7d2a1;}.cls-7{fill:#f9e5c7;}</style></defs><title>zucchini</title><path class="cls-1" d="M405.43,66.74l47.19,28.05A14.41,14.41,0,0,0,473,88.64l17-37.31a17,17,0,0,0-6.89-21.61L452.42,11.16a18.34,18.34,0,0,0-23.25,3.59L402,46.32A13.42,13.42,0,0,0,405.43,66.74Z"/><path class="cls-2" d="M452.62,94.79,405.43,66.74a13.53,13.53,0,0,1-6.73-12.39,76.53,76.53,0,0,0-57.2,25.59C294.72,132.89,204.43,219.6,67.56,287.1,8.48,316.24-11,388.71,25.35,442.29h0C61,494.71,135.2,507,186.68,468.78,277.49,401.41,407.28,288.39,468,156.31A69.73,69.73,0,0,0,466.7,95.2,14.59,14.59,0,0,1,452.62,94.79Z"/><path class="cls-3" d="M466.7,95.2a14.59,14.59,0,0,1-13.35,0,70.39,70.39,0,0,1-4.75,14.11C387.83,241.38,258.05,354.39,167.23,421.77,116.8,459.19,44.51,448.16,8.12,398.4a105.48,105.48,0,0,0,17.23,43.89h0C61,494.71,135.2,507,186.68,468.78,277.49,401.41,407.28,288.39,468,156.31A69.73,69.73,0,0,0,466.7,95.2Z"/><path class="cls-4" d="M405.43,66.74l47.19,28.05A14.41,14.41,0,0,0,473,88.64l17-37.31a17,17,0,0,0-6.89-21.61L452.42,11.16a18.34,18.34,0,0,0-23.25,3.59L402,46.32A13.42,13.42,0,0,0,405.43,66.74Z"/><path class="cls-4" d="M452.62,94.79,405.43,66.74a13.53,13.53,0,0,1-6.73-12.39,76.53,76.53,0,0,0-57.2,25.59C294.72,132.89,204.43,219.6,67.56,287.1,8.48,316.24-11,388.71,25.35,442.29h0C61,494.71,135.2,507,186.68,468.78,277.49,401.41,407.28,288.39,468,156.31A69.73,69.73,0,0,0,466.7,95.2,14.59,14.59,0,0,1,452.62,94.79Z"/><line class="cls-4" x1="412.69" y1="71.06" x2="458.92" y2="15.09"/><line class="cls-4" x1="477.3" y1="26.21" x2="442.46" y2="88.75"/><path class="cls-5" d="M8.12,382.39S274.89,276.66,412.69,71.06"/><path class="cls-5" d="M71.3,480.82s306.64-197.7,381.32-386"/><path class="cls-4" d="M452.62,94.79,405.43,66.74a13.53,13.53,0,0,1-6.73-12.39,76.53,76.53,0,0,0-57.2,25.59C294.72,132.89,204.43,219.6,67.56,287.1,8.48,316.24-11,388.71,25.35,442.29h0C61,494.71,135.2,507,186.68,468.78,277.49,401.41,407.28,288.39,468,156.31A69.73,69.73,0,0,0,466.7,95.2,14.59,14.59,0,0,1,452.62,94.79Z"/><circle class="cls-6" cx="277.97" cy="402.3" r="89.74"/><circle class="cls-7" cx="277.97" cy="402.3" r="69.98"/><circle class="cls-4" cx="277.97" cy="402.3" r="89.74"/><circle class="cls-4" cx="277.97" cy="402.3" r="89.74"/><circle class="cls-6" cx="402.44" cy="402.3" r="89.74"/><circle class="cls-7" cx="402.44" cy="402.3" r="69.98"/><circle class="cls-4" cx="402.44" cy="402.3" r="89.74"/><circle class="cls-4" cx="402.44" cy="402.3" r="89.74"/></svg>