<svg id="Layer_1" data-name="Layer 1" xmlns="http://www.w3.org/2000/svg" viewBox="0 0 500 500"><defs><style>.cls-1{fill:#366610;}.cls-2{fill:#618c15;}.cls-3{fill:#679b16;}.cls-4{fill:#8bba49;}.cls-5{fill:#7ba824;}.cls-6{fill:none;stroke:#000;stroke-linecap:round;stroke-linejoin:round;stroke-width:15px;}</style></defs><title>cabbage</title><path class="cls-1" d="M490.32,259.72c0,126.44-107.59,209.5-240.32,209.5S9.68,386.16,9.68,259.72,117.27,30.78,250,30.78,490.32,133.28,490.32,259.72Z"/><path class="cls-2" d="M350.43,51.68C332.05,61,315.78,77.55,308.69,106.6c0,0-53.94-3.38-75.14,38.27,20.69,19.59,40.7,53.17,12.13,99h0l-.46.31c21-14.18,51.14-23.63,94.35-21,0,0,11.2-85.74,104.64-98.3A239.2,239.2,0,0,0,350.43,51.68Z"/><path class="cls-3" d="M205.45,124.87c-20.66-62.73-69.08-66.73-69.4-66.76a236.94,236.94,0,0,0-91.3,82.49c.9,0,67.42.32,96.7,44.83,0,0,78.74-6.89,104.23,58.47C293.44,167.24,205.45,124.87,205.45,124.87Z"/><path class="cls-4" d="M141.45,185.43C112,140.67,44.88,140.6,44.73,140.6a219.89,219.89,0,0,0-35,119.12c0,84,47.48,148.82,118.25,182.9-3.64-33.9,1.38-90.8,68.95-113.32,0,0,2.24-54.33,48.8-85.4h0C220.19,178.54,141.45,185.43,141.45,185.43Z"/><path class="cls-4" d="M444.21,124.87c-93.44,12.56-104.64,98.3-104.64,98.3-138-8.26-142.69,106.13-142.69,106.13-67.57,22.52-72.59,79.42-68.95,113.32,35.78,17.22,77.5,26.6,122.07,26.6,132.73,0,240.32-83.06,240.32-209.5C490.32,209.3,473.2,162.69,444.21,124.87Z"/><path class="cls-5" d="M245.68,243.9a84.45,84.45,0,0,0-31.13-39.71c-53,43.82-55.7,109.57-55.7,109.57C104.13,332,79,366.49,68.52,401.4a223.62,223.62,0,0,0,59.41,41.22c-3.64-33.9,1.38-90.8,68.95-113.32,0,0,2.24-54.33,48.8-85.4Z"/><path class="cls-5" d="M444.21,124.87c-.56.07-1.1.16-1.65.24a267.32,267.32,0,0,1,8.76,68c0,152.46-128.24,252.61-286.44,252.61-11.39,0-22.61-.54-33.65-1.56,35,16.24,75.56,25.08,118.77,25.08,132.73,0,240.32-83.06,240.32-209.5C490.32,209.3,473.2,162.69,444.21,124.87Z"/><path class="cls-6" d="M490.32,259.72c0,126.44-107.59,209.5-240.32,209.5S9.68,386.16,9.68,259.72,117.27,30.78,250,30.78,490.32,133.28,490.32,259.72Z"/><path class="cls-6" d="M444.21,124.87c-93.44,12.56-104.64,98.3-104.64,98.3-138-8.26-142.69,106.13-142.69,106.13-67.57,22.52-72.59,79.42-68.95,113.32,35.78,17.22,77.5,26.6,122.07,26.6,132.73,0,240.32-83.06,240.32-209.5C490.32,209.3,473.2,162.69,444.21,124.87Z"/><path class="cls-6" d="M141.45,185.43C112,140.67,44.88,140.6,44.73,140.6a219.89,219.89,0,0,0-35,119.12c0,84,47.48,148.82,118.25,182.9-3.64-33.9,1.38-90.8,68.95-113.32,0,0,2.24-54.33,48.8-85.4h0C220.19,178.54,141.45,185.43,141.45,185.43Z"/><path class="cls-6" d="M205.45,124.87c-20.66-62.73-69.08-66.73-69.4-66.76a236.94,236.94,0,0,0-91.3,82.49c.9,0,67.42.32,96.7,44.83,0,0,78.74-6.89,104.23,58.47C293.44,167.24,205.45,124.87,205.45,124.87Z"/><path class="cls-6" d="M444.21,124.87c-93.44,12.56-104.64,98.3-104.64,98.3-138-8.26-142.69,106.13-142.69,106.13-67.57,22.52-72.59,79.42-68.95,113.32,35.78,17.22,77.5,26.6,122.07,26.6,132.73,0,240.32-83.06,240.32-209.5C490.32,209.3,473.2,162.69,444.21,124.87Z"/><path class="cls-6" d="M444.21,124.87c-93.44,12.56-104.64,98.3-104.64,98.3-138-8.26-142.69,106.13-142.69,106.13-67.57,22.52-72.59,79.42-68.95,113.32,35.78,17.22,77.5,26.6,122.07,26.6,132.73,0,240.32-83.06,240.32-209.5C490.32,209.3,473.2,162.69,444.21,124.87Z"/><path class="cls-6" d="M350.43,51.68C332.05,61,315.78,77.55,308.69,106.6c0,0-53.94-3.38-75.14,38.27,20.69,19.59,40.7,53.17,12.13,99h0l-.46.31c21-14.18,51.14-23.63,94.35-21,0,0,11.2-85.74,104.64-98.3A239.2,239.2,0,0,0,350.43,51.68Z"/><path class="cls-6" d="M296,466.21S389.45,400.35,395.57,269"/><path class="cls-6" d="M325,302.09s46.56,38.63,44.73,70.89"/><path class="cls-6" d="M335.25,427.53s46.47-39.65,92.93-54.55"/><path class="cls-6" d="M284.17,357.24s45,37.62,24.52,98.47"/><path class="cls-6" d="M92.16,229.57s-38,90.61-7.25,186.25"/><path class="cls-6" d="M143.22,269S88.5,282.55,74,311.22"/><path class="cls-6" d="M28.83,291.61S67,315,73.68,357.24"/></svg>