<?xml version="1.0" encoding="utf-8"?>
<!-- Svg Vector Icons : http://www.onlinewebfonts.com/icon -->
<!DOCTYPE svg PUBLIC "-//W3C//DTD SVG 1.1//EN" "http://www.w3.org/Graphics/SVG/1.1/DTD/svg11.dtd">
<svg version="1.1" xmlns="http://www.w3.org/2000/svg" xmlns:xlink="http://www.w3.org/1999/xlink" x="0px" y="0px" viewBox="0 0 1000 1000" enable-background="new 0 0 1000 1000" xml:space="preserve">
<metadata> Svg Vector Icons : http://www.onlinewebfonts.com/icon </metadata>
<g><g><path d="M848.2,986.2c-7.9-48-50-55-80.6-60.2c-11.9-2-22.2-3.7-28.5-7.3c-14.3-8-27.2-17.5-39.8-26.7c-29.3-21.3-56.9-41.5-96.9-41.5c-4.1,0-8.4,0.2-12.7,0.6c-11.9,1.3-23.7,3.6-35.2,5.9c-9.7,2-19.9,4.1-30,5.3c-2.9,0.4-5.4,0.8-7.6,1.2c-2.7,0.5-4.7,0.8-6.4,0.9c-25.7,1.4-3.3-67.3-3.3-67.3c16.1-47.6,32.7-96.8,68-132.2c12.7-12.6,27.3-22.3,43.8-32.8c2.2-1.4,4.5-2.5,6.7-3.3c19.9,5.3,40.7,8.5,60.7,6.5c30.9-3.7,56.9-14.7,83.2-30.9c5.1-3.2,25.4-15.8,24.3-22.4c-1.6-10-14.6-22.8-25.6-30.7c-59-40-149.2-8.4-171.9,58.6c20.5-17.2,56.4-29.2,98.6-22c-29.5,3.5-63.7,18-63.7,18s-68,29.7-117.3,129.3c6.6-30.1,15.1-59.3,23.4-88c10.3-35.5,21.1-72.3,28.1-110.5c13.2-95.3,82.9-165.4,89-169.2c18.7,2.2,37.8,2.5,55.7-1.5c30.3-7.4,54.7-21.5,78.9-40.7c4.7-3.8,23.3-18.7,21.5-25.2c-2.8-9.7-17.3-20.8-29.2-27.3c-63.4-32.6-149.1,9.6-163.5,78.9c18.3-19.5,52.5-35.8,95.2-33.7c-43.8,10.7-66,27.7-76,37.6v0c0,0-38,34.4-62,90.5c2.8-55.5,1.1-124-17.9-190.8c-13.5-47.3-28-73.4-28-73.4c-9.9-18.6-31.5-47.9-77-78.9c56.6,18.1,93.3,55.9,107.4,90.1C574.3,95.9,483.3-0.6,385.1,10.9c-18.6,2.7-42.7,10.2-51.1,21.4c-5.5,7.5,11.3,35.9,15.6,43.1c22.1,36.8,47.1,67,82.8,91.3c23.1,15.1,50.4,24.3,77.9,30.5c0.1,0.4,0.3,0.6,0.4,1c5.9,23.4,10.6,43.7,14.4,64.2c11.8,64.4,12.2,137.4,1.4,217.2c-8.8-47-65.9-100.9-80.2-113.9c-1.8-1.7-4-3.7-6.5-5.7v0l0,0c-12.1-9.8-33.4-22.7-69.1-31.4c42.8-2.1,77,14.2,95.2,33.7c-14.4-69.3-100.1-111.5-163.6-78.9c-11.8,6.5-26.3,17.6-29,27.3c-1.9,6.5,16.7,21.4,21.4,25.2c24.2,19.2,48.7,33.4,79,40.7c20,4.5,41.5,3.7,62.2,0.6c0.9,0.5,38.5,27.5,72.6,93.1c24.9,47.8,5.8,108.6-11.2,166.6c-5.4,18.4-10.6,36-14.3,52.7c-11.7-31.2-36.5-69-68.5-104c-6.2-7.7-27.9-29.7-80.8-42.4c42.7-2.2,77.1,13.8,95.4,33.2c-14.8-69.2-100.7-111-163.9-78.1c-11.9,6.6-26.3,17.7-29,27.5c-1.8,6.4,16.8,21.3,21.6,25.1c24.3,19.2,48.8,33.1,79.1,40.3c20.1,4.4,41.6,3.4,62.4,0.3c8.2,7.7,45.5,44.7,70,102.3c12.2,28.9,1.8,60.9-9.6,92.3c-3.3,9.5-6.6,18.5-9.1,27.5l-0.7,2.4c-5.6,19.4-11.4,39.4-12.9,59.8c-0.1,1.5-0.3,5-9.1,5c-12.8,0-34-7.8-48-12.9c-6-2.2-10.7-4.1-13.4-4.6c-27.6-6.8-54.8-4.9-75.5,5.6c-13.6,6.8-19.4,18.3-25,29.5c-4.8,9.5-9.4,18.5-18.5,23.4c-6.6,3.6-14.2,3.8-22.4,4.1c-9.2,0.2-18.8,0.5-27.1,5.9c-24.7,16.6-39.9,34.7-45.2,54l-1.2,4.2h697.5L848.2,986.2z"/></g><g></g><g></g><g></g><g></g><g></g><g></g><g></g><g></g><g></g><g></g><g></g><g></g><g></g><g></g><g></g></g>
</svg>