<svg id="Layer_1" data-name="Layer 1" xmlns="http://www.w3.org/2000/svg" viewBox="0 0 500 500"><defs><style>.cls-1{fill:#dd953e;}.cls-2{fill:#c17a3a;}.cls-3,.cls-4{fill:none;stroke-linecap:round;stroke-linejoin:round;stroke-width:15px;}.cls-3{stroke:#a0692e;}.cls-4{stroke:#000;}</style></defs><title>ginger</title><path class="cls-1" d="M161.84,194.94c13.68-16.61,27.17-34,40.08-52.13a359.42,359.42,0,0,1-2.12-55.18A38,38,0,0,0,165.44,48.3h0a38,38,0,0,0-41.29,41.9C127.3,118.9,136.68,157.44,161.84,194.94Z"/><path class="cls-2" d="M170.51,110.28a499.57,499.57,0,0,0,2.32,71.08c9.9-12.45,19.65-25.32,29.09-38.55a359.42,359.42,0,0,1-2.12-55.18A38,38,0,0,0,165.44,48.3h0a37.78,37.78,0,0,0-29.5,10.09A53.05,53.05,0,0,1,170.51,110.28Z"/><path class="cls-1" d="M79.1,342.53l1.74-.49a38.31,38.31,0,0,0,26-48.28A139.66,139.66,0,0,1,104,222.54a39.71,39.71,0,0,0-39.21-48.29h0A39.68,39.68,0,0,0,27.51,201.7c-12.95,40.06-6.24,82.11,5,116.18A38.12,38.12,0,0,0,79.1,342.53Z"/><path class="cls-2" d="M106.79,293.76A139.66,139.66,0,0,1,104,222.54a39.76,39.76,0,0,0-32.12-47.75,39.73,39.73,0,0,1,1.27,21.58,139.66,139.66,0,0,0,2.82,71.22A38.29,38.29,0,0,1,50,315.86l-1.74.49a38.08,38.08,0,0,1-15.89,1c0,.16.1.33.16.49A38.12,38.12,0,0,0,79.1,342.53l1.74-.49A38.31,38.31,0,0,0,106.79,293.76Z"/><path class="cls-1" d="M490.09,293.77h0a47.81,47.81,0,0,0-56.65-33.44,451.69,451.69,0,0,1-68.05,10.08c-18.71,20.06-38.82,40.37-60,60,53.67,24.07,105.17,27,142.35,24.16A47.79,47.79,0,0,0,490.09,293.77Z"/><path class="cls-2" d="M490.09,293.77h0A47.54,47.54,0,0,0,475.66,271a47.78,47.78,0,0,1-43.74,53.9,298.75,298.75,0,0,1-108.55-11.54q-8.85,8.59-17.95,17.07c53.67,24.07,105.17,27,142.35,24.16A47.79,47.79,0,0,0,490.09,293.77Z"/><path class="cls-1" d="M287.83,401.73l-52.55-12.36c-15,11.22-30.26,21.76-45.75,31.36l65.91,49.89a38.91,38.91,0,0,0,59.49-16.26h0A38.91,38.91,0,0,0,287.83,401.73Z"/><path class="cls-2" d="M305.79,411.46a38.92,38.92,0,0,1-59.47,16.22L215,404q-12.63,8.76-25.49,16.76l65.91,49.89a38.91,38.91,0,0,0,59.49-16.26h0A38.91,38.91,0,0,0,305.79,411.46Z"/><path class="cls-1" d="M385.42,37.94h0c-51.81-26.15-114.69-7-143.85,43.53-40,69.3-92.68,131.91-140.55,181.41a138.27,138.27,0,0,0,5.77,30.88A38.31,38.31,0,0,1,80.84,342l-1.74.49a38.19,38.19,0,0,1-43.06-17L34.43,327a78.79,78.79,0,0,0-7.66,109.06h0a77,77,0,0,0,85.7,23c118.28-43.55,233.32-161.56,307.74-251C465.83,153.34,448.84,70,385.42,37.94Z"/><path class="cls-2" d="M385.42,37.94h0l-1.64-.81c31.88,39.59,34,98.87-1.24,141.13-74.42,89.41-189.46,207.41-307.74,251a76.56,76.56,0,0,1-53.21-.1,81.33,81.33,0,0,0,5.18,6.95h0a77,77,0,0,0,85.7,23c118.28-43.55,233.32-161.56,307.74-251C465.83,153.34,448.84,70,385.42,37.94Z"/><path class="cls-3" d="M183.59,169.59S201.08,193.4,215.46,201"/><path class="cls-3" d="M223.33,111.3s30.83,36.71,68.43,54.52"/><path class="cls-3" d="M227.2,307.29s17.56,29.19,50.22,48.17"/><path class="cls-3" d="M123.92,238.55s17,23.59,22.7,27.86"/><path class="cls-3" d="M199.52,101.52S186.24,108,167.28,106"/><path class="cls-3" d="M21.59,266.41s10.74,4.56,34.12,3.93"/><path class="cls-3" d="M399.26,266.72s-4.88,24.44,5.24,40.57"/><path class="cls-3" d="M227.2,449.25a111.41,111.41,0,0,1,17.38-27.34"/><path class="cls-3" d="M90,409s28.22,32.86,46.48,40.29"/><path class="cls-4" d="M161.84,194.94c13.68-16.61,27.17-34,40.08-52.13a359.42,359.42,0,0,1-2.12-55.18A38,38,0,0,0,165.44,48.3h0a38,38,0,0,0-41.29,41.9C127.3,118.9,136.68,157.44,161.84,194.94Z"/><path class="cls-4" d="M79.1,342.53l1.74-.49a38.31,38.31,0,0,0,26-48.28A139.66,139.66,0,0,1,104,222.54a39.71,39.71,0,0,0-39.21-48.29h0A39.68,39.68,0,0,0,27.51,201.7c-12.95,40.06-6.24,82.11,5,116.18A38.12,38.12,0,0,0,79.1,342.53Z"/><path class="cls-4" d="M490.09,293.77h0a47.81,47.81,0,0,0-56.65-33.44,451.69,451.69,0,0,1-68.05,10.08c-18.71,20.06-38.82,40.37-60,60,53.67,24.07,105.17,27,142.35,24.16A47.79,47.79,0,0,0,490.09,293.77Z"/><path class="cls-4" d="M287.83,401.73l-52.55-12.36c-15,11.22-30.26,21.76-45.75,31.36l65.91,49.89a38.91,38.91,0,0,0,59.49-16.26h0A38.91,38.91,0,0,0,287.83,401.73Z"/><path class="cls-3" d="M444.06,157.66S404.5,143,382.83,121.53"/><path class="cls-4" d="M385.42,37.94h0c-51.81-26.15-114.69-7-143.85,43.53-40,69.3-92.68,131.91-140.55,181.41a138.27,138.27,0,0,0,5.77,30.88A38.31,38.31,0,0,1,80.84,342l-1.74.49a38.19,38.19,0,0,1-43.06-17L34.43,327a78.79,78.79,0,0,0-7.66,109.06h0a77,77,0,0,0,85.7,23c118.28-43.55,233.32-161.56,307.74-251C465.83,153.34,448.84,70,385.42,37.94Z"/></svg>