<svg id="Layer_1" data-name="Layer 1" xmlns="http://www.w3.org/2000/svg" viewBox="0 0 500 500"><defs><style>.cls-1{fill:#efd035;}.cls-2{fill:#edbf00;}.cls-3,.cls-4{fill:none;stroke-linecap:round;stroke-linejoin:round;stroke-width:15px;}.cls-3{stroke:#e8aa1f;}.cls-4{stroke:#000;}.cls-5{fill:#8bba49;}.cls-6{fill:#7ba824;}</style></defs><title>corn</title><path class="cls-1" d="M362.23,276.19c0,127.69-50.69,192.41-113.23,192.41S135.77,403.88,135.77,276.19,186.46,6.21,249,6.21,362.23,148.51,362.23,276.19Z"/><path class="cls-2" d="M249,6.21a41.36,41.36,0,0,0-5,.32c41.87,44.62,71.48,150.72,71.48,248.3,0,127.68-50.7,192.4-113.23,192.4a88,88,0,0,1-11.05-.69c16.92,14.68,36.67,22.06,57.78,22.06,62.54,0,113.23-64.72,113.23-192.41S311.54,6.21,249,6.21Z"/><line class="cls-3" x1="249" y1="6.21" x2="249" y2="468.6"/><line class="cls-3" x1="287.87" y1="24.93" x2="287.87" y2="468.6"/><line class="cls-3" x1="327.02" y1="88.29" x2="327.02" y2="448.47"/><line class="cls-3" x1="210.13" y1="24.93" x2="210.13" y2="468.6"/><line class="cls-3" x1="170.98" y1="88.29" x2="170.98" y2="451.93"/><line class="cls-3" x1="193.26" y1="45.7" x2="304.74" y2="45.7"/><line class="cls-3" x1="170.98" y1="88.29" x2="327.02" y2="88.29"/><line class="cls-3" x1="155.91" y1="130.87" x2="341.82" y2="130.87"/><line class="cls-3" x1="145.67" y1="173.45" x2="352.33" y2="173.45"/><line class="cls-3" x1="145.67" y1="216.04" x2="352.33" y2="216.04"/><line class="cls-3" x1="145.67" y1="258.62" x2="352.33" y2="258.62"/><line class="cls-3" x1="145.67" y1="301.21" x2="352.33" y2="301.21"/><line class="cls-3" x1="145.67" y1="343.79" x2="352.33" y2="343.79"/><path class="cls-4" d="M362.23,276.19c0,127.69-50.69,192.41-113.23,192.41S135.77,403.88,135.77,276.19,186.46,6.21,249,6.21,362.23,148.51,362.23,276.19Z"/><path class="cls-5" d="M249.88,493.79S266,157.63,28.11,193.42c0,0,82.11,56,91.94,153.69C127.57,421.89,175.63,493.86,249.88,493.79Z"/><path class="cls-4" d="M249.88,493.79S266,157.63,28.11,193.42c0,0,82.11,56,91.94,153.69C127.57,421.89,175.63,493.86,249.88,493.79Z"/><path class="cls-5" d="M250.12,493.79S234,157.63,471.89,193.42c0,0-82.11,56-91.94,153.69C372.43,421.89,324.37,493.86,250.12,493.79Z"/><path class="cls-6" d="M420.54,191.52c-25.44,21.86-78,76.07-86.08,156-6,60.19-36.3,118.7-84.39,144.9,0,.89.05,1.36.05,1.36,74.25.07,122.31-71.9,129.83-146.68,9.83-97.7,91.94-153.69,91.94-153.69A214.65,214.65,0,0,0,420.54,191.52Z"/><path class="cls-4" d="M250.12,493.79S234,157.63,471.89,193.42c0,0-82.11,56-91.94,153.69C372.43,421.89,324.37,493.86,250.12,493.79Z"/></svg>