<?xml version="1.0" encoding="UTF-8" standalone="no"?>
<svg
   xmlns:dc="http://purl.org/dc/elements/1.1/"
   xmlns:cc="http://creativecommons.org/ns#"
   xmlns:rdf="http://www.w3.org/1999/02/22-rdf-syntax-ns#"
   xmlns:svg="http://www.w3.org/2000/svg"
   xmlns="http://www.w3.org/2000/svg"
   xmlns:sodipodi="http://sodipodi.sourceforge.net/DTD/sodipodi-0.dtd"
   xmlns:inkscape="http://www.inkscape.org/namespaces/inkscape"
   version="1.1"
   x="0px"
   y="0px"
   viewBox="0 0 1000 1000"
   enable-background="new 0 0 1000 1000"
   xml:space="preserve"
   id="svg8"
   sodipodi:docname="next_hover.svg"
   inkscape:version="1.0.1 (3bc2e813f5, 2020-09-07)"><defs
   id="defs12" /><sodipodi:namedview
   pagecolor="#ffffff"
   bordercolor="#666666"
   borderopacity="1"
   objecttolerance="10"
   gridtolerance="10"
   guidetolerance="10"
   inkscape:pageopacity="0"
   inkscape:pageshadow="2"
   inkscape:window-width="876"
   inkscape:window-height="480"
   id="namedview10"
   showgrid="false"
   inkscape:zoom="0.538"
   inkscape:cx="500"
   inkscape:cy="500"
   inkscape:window-x="0"
   inkscape:window-y="0"
   inkscape:window-maximized="0"
   inkscape:current-layer="svg8" />
<metadata
   id="metadata2"> Svg Vector Icons : http://www.onlinewebfonts.com/icon <rdf:RDF><cc:Work
     rdf:about=""><dc:format>image/svg+xml</dc:format><dc:type
       rdf:resource="http://purl.org/dc/dcmitype/StillImage" /><dc:title></dc:title></cc:Work></rdf:RDF></metadata>
<g
   id="g6"><path
     d="m 607.2,346.9 c -25.4,0 -45.9,20.6 -45.9,45.9 v 65.7 l -141.5,-102.9 -0.1,0.1 c -7.6,-5.5 -16.8,-8.9 -27,-8.9 -25.4,0 -45.9,20.6 -45.9,45.9 v 214.4 c 0,25.4 20.6,45.9 45.9,45.9 10.1,0 19.4,-3.4 27,-8.9 l 0.1,0.1 141.4,-102.9 V 607 c 0,25.4 20.6,45.9 45.9,45.9 25.3,0 45.9,-20.6 45.9,-45.9 V 392.8 c 0.1,-25.4 -20.4,-45.9 -45.8,-45.9 z M 500,10 C 229.4,10 10,229.4 10,500 10,770.6 229.4,990 500,990 770.6,990 990,770.6 990,500 990,229.4 770.6,10 500,10 Z m 0,888.1 C 280.1,898.1 101.9,719.8 101.9,500 101.9,280.2 280.1,101.9 500,101.9 c 219.9,0 398.1,178.2 398.1,398.1 0,219.9 -178.2,398.1 -398.1,398.1 z"
     id="path4"
     style="fill:#008000" /></g>
</svg>
