<?xml version="1.0" encoding="utf-8"?>
<!-- Svg Vector Icons : http://www.onlinewebfonts.com/icon -->
<!DOCTYPE svg PUBLIC "-//W3C//DTD SVG 1.1//EN" "http://www.w3.org/Graphics/SVG/1.1/DTD/svg11.dtd">
<svg version="1.1" xmlns="http://www.w3.org/2000/svg" xmlns:xlink="http://www.w3.org/1999/xlink" x="0px" y="0px" viewBox="0 0 1000 1000" enable-background="new 0 0 1000 1000" xml:space="preserve">
<metadata> Svg Vector Icons : http://www.onlinewebfonts.com/icon </metadata>
<g><path d="M607.2,346.9c-25.4,0-45.9,20.6-45.9,45.9v65.7L419.8,355.6l-0.1,0.1c-7.6-5.5-16.8-8.9-27-8.9c-25.4,0-45.9,20.6-45.9,45.9v214.4c0,25.4,20.6,45.9,45.9,45.9c10.1,0,19.4-3.4,27-8.9l0.1,0.1l141.4-102.9v65.7c0,25.4,20.6,45.9,45.9,45.9s45.9-20.6,45.9-45.9V392.8C653.1,367.4,632.6,346.9,607.2,346.9z M500,10C229.4,10,10,229.4,10,500c0,270.6,219.4,490,490,490c270.6,0,490-219.4,490-490C990,229.4,770.6,10,500,10z M500,898.1c-219.9,0-398.1-178.3-398.1-398.1S280.1,101.9,500,101.9S898.1,280.1,898.1,500C898.1,719.9,719.9,898.1,500,898.1z"/></g>
</svg>