<svg id="Layer_1" data-name="Layer 1" xmlns="http://www.w3.org/2000/svg" viewBox="0 0 500 500"><defs><style>.cls-1{fill:#dd953e;}.cls-2{fill:#c17a3a;}.cls-3{fill:none;stroke:#000;stroke-linecap:round;stroke-linejoin:round;stroke-width:15px;}.cls-4{fill:#a0692e;}</style></defs><title>potato</title><path class="cls-1" d="M415.77,59.86c64.15,88,132.73,207.57-81.84,361.5C222.85,501.05,105.82,524.07,47.13,432.3S52,244.68,131.25,132.43C204.87,28.16,339.36-45,415.77,59.86Z"/><path class="cls-2" d="M264.48,405.26c-52.3,37.52-105.66,64.95-155.75,78.39,62.15,23.09,145.22-4.9,225.2-62.29C521.4,286.87,492.73,178.62,439.71,94.72,460.89,182.05,431.74,285.27,264.48,405.26Z"/><path class="cls-3" d="M415.77,59.86c64.15,88,132.73,207.57-81.84,361.5C222.85,501.05,105.82,524.07,47.13,432.3S52,244.68,131.25,132.43C204.87,28.16,339.36-45,415.77,59.86Z"/><circle class="cls-4" cx="162.07" cy="275.97" r="15.16"/><circle class="cls-4" cx="257.57" cy="133.24" r="15.16"/><circle class="cls-4" cx="107.57" cy="243.8" r="15.16"/><circle class="cls-4" cx="241" cy="74.05" r="15.16"/><circle class="cls-4" cx="135.28" cy="390.02" r="15.16"/><circle class="cls-4" cx="209.16" cy="335.97" r="15.16"/><circle class="cls-4" cx="402.39" cy="155.35" r="15.16"/><circle class="cls-4" cx="366.7" cy="96.77" r="15.16"/><circle class="cls-4" cx="196.17" cy="399.39" r="15.16"/><circle class="cls-4" cx="279.73" cy="212.09" r="12.15"/><circle class="cls-4" cx="275.59" cy="345.8" r="12.15"/><circle class="cls-4" cx="314.43" cy="152.73" r="15.16"/><circle class="cls-4" cx="80.12" cy="417.71" r="15.16"/><circle class="cls-4" cx="66.77" cy="340.77" r="15.16"/><circle class="cls-4" cx="144.58" cy="330.4" r="20.94"/><circle class="cls-4" cx="313.74" cy="70.9" r="20.94"/><circle class="cls-4" cx="359.9" cy="209.53" r="20.94"/></svg>