<svg id="Layer_1" data-name="Layer 1" xmlns="http://www.w3.org/2000/svg" viewBox="0 0 500 500"><defs><style>.cls-1{fill:#679b16;}.cls-2{fill:#5d8715;}.cls-3{fill:none;stroke:#000;stroke-linecap:round;stroke-linejoin:round;stroke-width:15px;}.cls-4{fill:#f9e5c7;}.cls-5{fill:#f7d2a1;}.cls-6{fill:#c8e283;}.cls-7{fill:#bae046;}.cls-8{fill:#74bc17;}</style></defs><title>leek</title><polygon class="cls-1" points="286.76 270.95 228.23 212.42 433.43 81.41 491.97 139.94 286.76 270.95"/><polygon class="cls-2" points="440.78 88.75 433.43 81.41 228.23 212.42 286.76 270.95 350.39 230.33 440.78 88.75"/><polyline class="cls-3" points="228.23 212.42 433.43 81.41 491.97 139.94 286.76 270.95"/><path class="cls-4" d="M71.76,480.62,19.18,428.05a15.18,15.18,0,0,1,.28-21.88L228.54,212.73l58.53,58.53L93.64,480.34A15.18,15.18,0,0,1,71.76,480.62Z"/><path class="cls-5" d="M287.08,271.26l-29.43-29.42L64.21,450.92a15.17,15.17,0,0,1-21.87.28l29.42,29.42a15.18,15.18,0,0,0,21.88-.28Z"/><polygon class="cls-6" points="255.46 305.46 287.07 271.26 228.54 212.73 194.34 244.34 255.46 305.46"/><polygon class="cls-7" points="287.07 271.26 257.65 241.84 226.04 276.04 255.46 305.46 287.07 271.26"/><line class="cls-3" x1="45.47" y1="454.33" x2="23.58" y2="476.22"/><line class="cls-3" x1="7.42" y1="448.13" x2="31.34" y2="442.77"/><line class="cls-3" x1="51.68" y1="492.38" x2="57.03" y2="468.46"/><polygon class="cls-8" points="228.54 212.73 287.07 271.26 418.09 66.06 359.55 7.53 228.54 212.73"/><path class="cls-3" d="M71.76,480.62,19.18,428.05a15.18,15.18,0,0,1,.28-21.88L228.54,212.73l58.53,58.53L93.64,480.34A15.18,15.18,0,0,1,71.76,480.62Z"/><polyline class="cls-3" points="287.07 271.26 418.09 66.06 359.55 7.53 228.54 212.73"/></svg>