<svg id="Layer_1" data-name="Layer 1" xmlns="http://www.w3.org/2000/svg" viewBox="0 0 500 500"><defs><style>.cls-1{fill:#679b16;}.cls-2{fill:#74bc17;}.cls-3{fill:#c91172;}.cls-4{fill:#aa0f68;}.cls-5{fill:none;stroke:#000;stroke-linecap:round;stroke-linejoin:round;stroke-width:15px;}</style></defs><title>beetroot</title><path class="cls-1" d="M172.29,193.22A230.47,230.47,0,0,1,210.76,185c-28.14-34.38-70.29-94.47-33.63-107.79,23.59-8.57,34.54,21.09,37.42,30.69-1.66-6.91-5.09-26.29-1.66-59.24a70.77,70.77,0,0,1,2-10.9C203,16.9,189.61,10.57,176.33,12.35c-33,4.44-28.82,68.29-28.82,68.29-21-10.64-38.86,1.78-27,36.37C128.33,139.66,154.26,172.28,172.29,193.22Z"/><path class="cls-1" d="M284.78,107.87c2.87-9.6,13.83-39.26,37.42-30.69,36.63,13.31-5.43,73.32-33.57,107.71a230.87,230.87,0,0,1,38.55,8.17c18-21,43.84-53.46,51.61-76,11.89-34.59-6-47-27-36.37,0,0,4.17-63.85-28.82-68.29-13.29-1.78-26.65,4.55-38.52,25.38a70.77,70.77,0,0,1,2,10.9C289.86,81.58,286.44,101,284.78,107.87Z"/><path class="cls-2" d="M250,182.52a239.8,239.8,0,0,1,38.19,2.92c28.13-34.3,70.83-94.88,34-108.26-23.59-8.57-34.55,21.09-37.42,30.69,1.66-6.91,5.08-26.29,1.66-59.24C282.05,6.42,249.66,8.11,249.66,8.11s-32.39-1.69-36.77,40.52c-3.43,32.95,0,52.33,1.66,59.24-2.88-9.6-13.83-39.26-37.42-30.69-36.86,13.4,6,74.07,34.09,108.35A239.32,239.32,0,0,1,250,182.52Z"/><path class="cls-3" d="M250,182.52c-186.31,0-216.12,151.17-98,211.19,41.77,21.23,66.25,72.54,80.3,90.27,8.37,10.57,27,10.57,35.4,0,14.05-17.73,38.53-69,80.3-90.27C466.12,333.69,436.31,182.52,250,182.52Z"/><path class="cls-4" d="M303,187.15c96.93,41.31,96.38,146.38,2.62,194-41.77,21.23-66.25,72.54-80.3,90.27-.31.39-.64.76-1,1.13,3,4.53,5.6,8.45,8,11.41,8.37,10.57,27,10.57,35.4,0,14.05-17.73,38.53-69,80.3-90.27C453.85,339.92,440.91,213,303,187.15Z"/><path class="cls-5" d="M250,182.52c-186.31,0-216.12,151.17-98,211.19,41.77,21.23,66.25,72.54,80.3,90.27,8.37,10.57,27,10.57,35.4,0,14.05-17.73,38.53-69,80.3-90.27C466.12,333.69,436.31,182.52,250,182.52Z"/><path class="cls-5" d="M250,182.52a239.8,239.8,0,0,1,38.19,2.92c28.13-34.3,70.83-94.88,34-108.26-23.59-8.57-34.55,21.09-37.42,30.69,1.66-6.91,5.08-26.29,1.66-59.24C282.05,6.42,249.66,8.11,249.66,8.11s-32.39-1.69-36.77,40.52c-3.43,32.95,0,52.33,1.66,59.24-2.88-9.6-13.83-39.26-37.42-30.69-36.86,13.4,6,74.07,34.09,108.35A239.32,239.32,0,0,1,250,182.52Z"/><path class="cls-5" d="M250,182.52c-186.31,0-216.12,151.17-98,211.19,41.77,21.23,66.25,72.54,80.3,90.27,8.37,10.57,27,10.57,35.4,0,14.05-17.73,38.53-69,80.3-90.27C466.12,333.69,436.31,182.52,250,182.52Z"/><path class="cls-5" d="M172.29,193.22A230.47,230.47,0,0,1,210.76,185c-28.14-34.38-70.29-94.47-33.63-107.79,23.59-8.57,34.54,21.09,37.42,30.69-1.66-6.91-5.09-26.29-1.66-59.24a70.77,70.77,0,0,1,2-10.9C203,16.9,189.61,10.57,176.33,12.35c-33,4.44-28.82,68.29-28.82,68.29-21-10.64-38.86,1.78-27,36.37C128.33,139.66,154.26,172.28,172.29,193.22Z"/><path class="cls-5" d="M284.78,107.87c2.87-9.6,13.83-39.26,37.42-30.69,36.63,13.31-5.43,73.32-33.57,107.71a230.87,230.87,0,0,1,38.55,8.17c18-21,43.84-53.46,51.61-76,11.89-34.59-6-47-27-36.37,0,0,4.17-63.85-28.82-68.29-13.29-1.78-26.65,4.55-38.52,25.38a70.77,70.77,0,0,1,2,10.9C289.86,81.58,286.44,101,284.78,107.87Z"/></svg>