<svg xmlns="http://www.w3.org/2000/svg" height="511pt" version="1.1" viewBox="0 0 511.99948 511" width="511pt">
<g id="surface1">
<path d="M 511.183594 105.070312 C 508.484375 112.867188 500.085938 117.066406 492.289062 114.667969 C 467.101562 106.269531 440.714844 108.96875 418.222656 120.964844 C 443.410156 123.363281 467.703125 134.460938 486.296875 153.351562 C 492.292969 159.347656 492.292969 168.644531 486.296875 174.644531 C 480.597656 180.34375 471 180.34375 465.304688 174.644531 C 443.710938 153.050781 412.527344 145.257812 383.4375 153.953125 L 365.445312 168.046875 C 357.050781 174.644531 350.152344 168.945312 347.152344 168.046875 C 346.550781 167.445312 346.25 167.148438 345.953125 166.546875 C 339.957031 159.949219 340.257812 152.753906 344.453125 147.054688 L 358.546875 129.0625 C 367.242188 99.976562 359.445312 68.785156 337.855469 47.195312 C 332.160156 41.5 332.160156 31.902344 337.855469 26.207031 C 343.855469 20.207031 353.148438 20.207031 359.144531 26.207031 C 378.039062 44.796875 389.132812 69.085938 391.535156 94.277344 C 403.53125 71.789062 406.226562 45.398438 397.832031 20.207031 C 395.433594 12.414062 399.632812 4.015625 407.429688 1.316406 C 415.226562 -1.382812 423.621094 2.816406 426.320312 10.910156 C 434.714844 35.5 434.417969 61.289062 427.519531 84.980469 C 428.121094 84.683594 428.71875 84.683594 429.320312 84.382812 C 452.410156 78.082031 477.597656 78.082031 501.589844 86.179688 C 509.683594 88.878906 513.882812 97.273438 511.183594 105.070312 Z M 511.183594 105.070312 " style=" stroke:none;fill-rule:nonzero;fill:rgb(65.882353%,82.745098%,16.470588%);fill-opacity:1;" />
<path d="M 511.183594 105.070312 C 508.484375 112.867188 500.085938 117.066406 492.289062 114.667969 C 467.101562 106.269531 440.714844 108.96875 418.222656 120.964844 C 443.410156 123.363281 467.703125 134.460938 486.296875 153.351562 C 492.292969 159.347656 492.292969 168.644531 486.296875 174.644531 C 480.597656 180.34375 471 180.34375 465.304688 174.644531 C 443.710938 153.050781 412.527344 145.257812 383.4375 153.953125 L 365.445312 168.046875 C 357.050781 174.644531 350.152344 168.945312 347.152344 168.046875 C 346.550781 167.445312 346.25 167.148438 345.953125 166.546875 L 427.519531 84.980469 C 428.121094 84.679688 428.71875 84.679688 429.320312 84.378906 C 452.410156 78.082031 477.597656 78.082031 501.589844 86.179688 C 509.683594 88.878906 513.882812 97.273438 511.183594 105.070312 Z M 511.183594 105.070312 " style=" stroke:none;fill-rule:nonzero;fill:rgb(50.588235%,65.490196%,7.45098%);fill-opacity:1;" />
<path d="M 376.238281 282.300781 L 333.355469 260.40625 L 355.246094 303.589844 C 339.351562 316.183594 312.066406 334.179688 279.378906 354.871094 L 248.488281 345.273438 L 253.289062 371.363281 C 160.925781 428.9375 42.273438 499.011719 22.484375 510.40625 C 16.785156 514.003906 9.289062 512.804688 4.492188 508.007812 C -0.308594 503.210938 -1.503906 495.710938 2.09375 490.015625 C 11.386719 473.820312 60.46875 391.15625 108.75 311.6875 L 124.941406 306.589844 L 124.941406 285.300781 C 142.335938 257.109375 159.125 230.121094 174.121094 207.332031 L 209.503906 221.726562 L 191.214844 181.839844 C 202.910156 164.746094 212.503906 151.550781 218.5 145.554688 C 258.085938 105.972656 327.355469 105.972656 366.941406 145.554688 C 404.125 183.039062 407.125 241.214844 376.238281 282.300781 Z M 376.238281 282.300781 " style=" stroke:none;fill-rule:nonzero;fill:rgb(100%,62.352941%,0%);fill-opacity:1;" />
<path d="M 376.238281 282.300781 L 333.355469 260.40625 L 355.246094 303.589844 C 339.351562 316.183594 312.066406 334.179688 279.378906 354.871094 L 248.488281 345.273438 L 253.289062 371.363281 C 160.925781 428.9375 42.273438 499.011719 22.484375 510.40625 C 16.785156 514.003906 9.289062 512.804688 4.492188 508.007812 L 366.941406 145.554688 C 404.125 183.039062 407.125 241.214844 376.238281 282.300781 Z M 376.238281 282.300781 " style=" stroke:none;fill-rule:nonzero;fill:rgb(100%,47.058824%,8.627451%);fill-opacity:1;" />
<path d="M 239.640625 251.65625 C 245.496094 245.800781 245.496094 236.3125 239.640625 230.453125 L 191.066406 181.882812 C 185.785156 189.613281 180.179688 197.984375 174.09375 207.316406 L 218.4375 251.65625 C 224.292969 257.511719 233.78125 257.515625 239.640625 251.65625 Z M 239.640625 251.65625 " style=" stroke:none;fill-rule:nonzero;fill:rgb(100%,47.058824%,8.627451%);fill-opacity:1;" />
<path d="M 376.386719 282.394531 L 324.449219 230.453125 C 318.589844 224.597656 309.101562 224.597656 303.246094 230.453125 C 297.390625 236.3125 297.390625 245.800781 303.246094 251.65625 L 355.328125 303.738281 C 360.195312 299.980469 364.296875 296.617188 366.851562 294.0625 C 370.484375 290.429688 373.398438 286.386719 376.386719 282.394531 Z M 376.386719 282.394531 " style=" stroke:none;fill-rule:nonzero;fill:rgb(100%,29.411765%,0%);fill-opacity:1;" />
<path d="M 218.4375 315.277344 C 212.582031 321.136719 212.582031 330.625 218.4375 336.480469 L 253.324219 371.367188 C 262.269531 365.796875 270.984375 360.320312 279.363281 355.003906 L 239.640625 315.28125 C 233.78125 309.421875 224.292969 309.421875 218.4375 315.277344 Z M 218.4375 315.277344 " style=" stroke:none;fill-rule:nonzero;fill:rgb(100%,29.411765%,0%);fill-opacity:1;" />
<path d="M 154.816406 336.480469 C 160.671875 330.625 160.671875 321.132812 154.816406 315.277344 L 124.917969 285.378906 C 119.5625 294.085938 114.199219 302.863281 108.824219 311.691406 L 133.613281 336.480469 C 139.46875 342.335938 148.957031 342.335938 154.816406 336.480469 Z M 154.816406 336.480469 " style=" stroke:none;fill-rule:nonzero;fill:rgb(100%,47.058824%,8.627451%);fill-opacity:1;" />
</g>
</svg>